<?xml version="1.0" encoding="UTF-8"?>
<svg xmlns="http://www.w3.org/2000/svg" viewBox="0 0 36 36">
  <path
    d="M18,0C8.06,0,0,8.06,0,18s8.06,18,18,18,18-8.06,18-18S27.94,0,18,0ZM6.8,12.06c-.2,.26-.5,.4-.8,.4-.21,0-.42-.07-.6-.2-.44-.33-.53-.96-.2-1.4,3.26-4.35,7.62-4.4,7.8-4.4,.55,0,1,.45,1,1s-.45,1-1,1c-.16,0-3.57,.09-6.21,3.6Zm2.2,4.44c0-1.93,1.12-3.5,2.5-3.5s2.5,1.57,2.5,3.5-1.12,3.5-2.5,3.5-2.5-1.57-2.5-3.5Zm9,12c-4.34,0-5.47-4.34-5.48-4.38-.05-.22,.04-.45,.24-.56,.2-.11,.44-.08,.6,.08,0,0,1.01,.85,4.65,.85s4.65-.85,4.66-.86c.17-.15,.41-.17,.6-.06,.19,.11,.28,.33,.23,.54-.01,.04-1.14,4.38-5.48,4.38Zm10.31-10.11c-.09,.07-.2,.11-.31,.11-.1,0-.21-.03-.3-.1-.03-.02-1.28-.9-3.7-.9s-3.69,.89-3.7,.9c-.18,.13-.43,.13-.61-.01-.18-.14-.24-.38-.14-.59,.06-.14,1.5-3.3,4.46-3.3s4.4,3.16,4.46,3.3c.09,.21,.03,.45-.15,.59Zm1.29-4.01c-.18,.14-.39,.2-.6,.2-.3,0-.6-.14-.8-.4-2.59-3.46-6.96-2.63-7-2.62-.55,.11-1.07-.24-1.18-.78-.11-.54,.24-1.07,.78-1.18,.23-.05,5.66-1.07,9,3.38,.33,.44,.24,1.07-.2,1.4Z"
    fill="#9aa7b0"/>
</svg>
