<svg version="1.1" viewBox="0 0 36 36" xmlns="http://www.w3.org/2000/svg" xmlns:cc="http://creativecommons.org/ns#" xmlns:dc="http://purl.org/dc/elements/1.1/" xmlns:rdf="http://www.w3.org/1999/02/22-rdf-syntax-ns#">
 <path d="m18 0c-9.94 0-18 8.06-18 18 0 9.941 8.06 18 18 18 9.941 0 18-8.059 18-18 0-9.94-8.059-18-18-18zm-10 16h7c0.552 0 1 0.448 1 1s-0.448 1-1 1h-7c-0.552 0-1-0.448-1-1s0.448-1 1-1zm13 0h7c0.553 0 1 0.448 1 1s-0.447 1-1 1h-7c-0.553 0-1-0.448-1-1s0.447-1 1-1zm-10 8h14c0.553 0 1 0.447 1 1s-0.447 1-1 1h-14c-0.552 0-1-0.447-1-1s0.448-1 1-1z" fill="#9aa7b0"/>
</svg>
