<svg version="1.1" viewBox="0 0 36 36" xmlns="http://www.w3.org/2000/svg" xmlns:cc="http://creativecommons.org/ns#" xmlns:dc="http://purl.org/dc/elements/1.1/" xmlns:rdf="http://www.w3.org/1999/02/22-rdf-syntax-ns#">
 <path d="m17.91 0a18 18 0 0 0-17.91 18 18 18 0 0 0 18 18 18 18 0 0 0 18-18 18 18 0 0 0-18-18 18 18 0 0 0-0.089844 0zm-8.918 16.5c0.10788-0.001625 0.21709 0.031109 0.30859 0.099609 0.01 7e-3 1.2582 0.90039 3.6992 0.90039 2.442 0 3.6892-0.89334 3.7012-0.90234 0.183-0.133 0.43533-0.12933 0.61133 0.013672 0.177 0.142 0.23653 0.3848 0.14453 0.5918-0.06 0.135-1.499 3.2969-4.457 3.2969-2.957 0-4.397-3.1619-4.457-3.2969-0.092-0.208-0.031516-0.45175 0.14648-0.59375 0.088-0.071 0.19486-0.10775 0.30273-0.10938zm10 0c0.10775-0.001625 0.21709 0.031109 0.30859 0.099609 0.01 7e-3 1.2592 0.90039 3.6992 0.90039 2.441 0 3.6892-0.89334 3.7012-0.90234 0.184-0.134 0.43533-0.12933 0.61133 0.013672 0.177 0.142 0.23653 0.3848 0.14453 0.5918-0.06 0.135-1.499 3.2969-4.457 3.2969-2.957 0-4.397-3.1619-4.457-3.2969-0.092-0.208-0.031516-0.45175 0.14648-0.59375 0.0885-0.071 0.19498-0.10775 0.30274-0.10938zm-1.0449 6.5a3 3 0 0 1 0.001953 0 3 3 0 0 1 0.050781 0 3 3 0 0 1 3 3 3 3 0 0 1-3 3 3 3 0 0 1-3-3 3 3 0 0 1 2.9473-3z" fill="#9aa7b0"/>
  <g accentTint="fill" fill="#3592C4">
    <path d="M31.771 5.084h-3.149c-.679 0-1.225-.433-1.225-1.187s.546-1.188 1.225-1.188h6.164c.245 0 .885.113.885.848 0 .358-.076.528-.282.811l-4.279 5.993h3.582c.677 0 1.225.433 1.225 1.187s-.548 1.187-1.225 1.187h-6.315c-.603 0-1.111-.302-1.111-.924 0-.302.15-.584.244-.735l4.261-5.992z" />
    <path d="M22.896 1.903h-2.357c-.508 0-.917-.324-.917-.889 0-.564.409-.889.917-.889h4.615c.184 0 .663.085.663.635 0 .268-.057.395-.211.607l-3.203 4.487h2.682c.505 0 .915.324.915.889s-.41.889-.917.889h-4.728c-.452 0-.832-.226-.832-.691 0-.226.113-.437.183-.55l3.19-4.488z" />
    <path d="M16.037 5.652H14.02c-.435 0-.785-.278-.785-.761s.35-.761.785-.761h3.95c.157 0 .567.073.567.544 0 .229-.048.338-.181.519l-2.742 3.84h2.295c.434 0 .785.278.785.761s-.351.761-.785.761h-4.047c-.386 0-.712-.193-.712-.592 0-.193.096-.374.157-.471l2.73-3.84z" />
  </g>
</svg>
