<?xml version="1.0" encoding="UTF-8"?>
<svg version="1.1" viewBox="0 0 36 36" xmlns="http://www.w3.org/2000/svg" xmlns:cc="http://creativecommons.org/ns#" xmlns:dc="http://purl.org/dc/elements/1.1/" xmlns:rdf="http://www.w3.org/1999/02/22-rdf-syntax-ns#">
 <path fill="#9aa7b0" d="m18 0c-9.94 0-18 8.06-18 18 0 9.941 8.06 18 18 18 9.941 0 18-8.059 18-18 0-9.94-8.059-18-18-18zm6.8418 9.9199c1.7288-0.002625 3.557 0.61151 4.957 2.4785 0.332 0.442 0.24278 1.0694-0.19922 1.4004-0.179 0.136-0.38866 0.20117-0.59766 0.20117-0.305 0-0.60573-0.13839-0.80273-0.40039-2.432-3.244-6.5135-0.84519-6.6855-0.74219-0.475 0.285-1.0881 0.12925-1.3711-0.34375-0.284-0.474-0.1322-1.0871 0.3418-1.3711 0.999-0.5995 2.6287-1.22 4.3574-1.2227zm-13.684 0.0019531c1.7288 0.002625 3.357 0.6212 4.3555 1.2207 0.474 0.284 0.62775 0.89905 0.34375 1.373-0.284 0.473-0.89709 0.62775-1.3711 0.34375-0.179-0.106-4.2735-2.4748-6.6875 0.74219-0.195 0.261-0.49678 0.39844-0.80078 0.39844-0.208 0-0.41766-0.064219-0.59766-0.19922-0.442-0.331-0.53217-0.95839-0.20117-1.4004 1.4005-1.867 3.2302-2.4811 4.959-2.4785zm-3.1582 5.0781h7c0.552 0 1 0.448 1 1 0 0.063-0.024156 0.11969-0.035156 0.17969 0.022 0.104 0.035156 0.21031 0.035156 0.32031 0 0.829-0.672 1.5-1.5 1.5-0.652 0-1.2012-0.419-1.4082-1h-5.0918c-0.552 0-1-0.448-1-1s0.448-1 1-1zm13 0h7c0.553 0 1 0.448 1 1 0 0.063-0.023156 0.11969-0.035156 0.17969 0.022 0.104 0.035156 0.21031 0.035156 0.32031 0 0.829-0.672 1.5-1.5 1.5-0.652 0-1.2012-0.419-1.4082-1h-5.0918c-0.553 0-1-0.448-1-1s0.447-1 1-1zm-7.0156 6.9941c0.25458 0.026295 0.49947 0.1492 0.67383 0.36328 0.84138 1.0348 1.2426 2.1052 1.3613 3.1465 0.89908-0.4945 1.8208-0.71015 2.7168-0.72266 2.2245-0.03106 4.2806 1.1393 5.373 2.1016 0.415 0.36484 0.45469 0.99712 0.089844 1.4121-0.36466 0.41401-0.99516 0.45466-1.4102 0.089844-0.15694-0.13655-3.7582-3.2053-6.7129-0.47656-0.092639 0.085915-0.19955 0.14547-0.31055 0.18945-0.46143 1.5324-1.3742 2.833-2.1426 3.6016-0.39031 0.39114-1.0229 0.39031-1.4141 0-0.39017-0.39007-0.39224-1.021-0.001953-1.4121 0.14619-0.14801 3.4353-3.5489 0.89844-6.6699-0.20602-0.25239-0.26696-0.57809-0.19336-0.87305 0.05036-0.20181 0.16528-0.38929 0.33984-0.53125 0.21408-0.17436 0.47784-0.24504 0.73242-0.21875z"/>
</svg>
